<?xml version="1.0" standalone="no"?>
<!DOCTYPE svg PUBLIC "-//W3C//DTD SVG 20010904//EN"
 "http://www.w3.org/TR/2001/REC-SVG-20010904/DTD/svg10.dtd">
<svg version="1.0" xmlns="http://www.w3.org/2000/svg"
 width="854.000000pt" height="880.000000pt" viewBox="0 0 854.000000 880.000000"
 preserveAspectRatio="xMidYMid meet">

<g transform="translate(0.000000,880.000000) scale(0.100000,-0.100000)"
fill="#000000" stroke="none">
<path d="M828 8586 c-21 -7 -69 -39 -108 -70 -155 -126 -269 -301 -345 -530
-65 -195 -91 -361 -130 -811 -33 -385 -40 -470 -70 -815 -14 -157 -34 -391
-45 -520 -47 -565 -81 -936 -85 -949 -3 -8 -14 -68 -25 -135 -19 -114 -20
-172 -20 -1013 0 -962 2 -1016 56 -1353 76 -480 208 -879 406 -1230 298 -528
616 -782 1159 -925 327 -86 887 -160 1589 -212 288 -21 1799 -31 1950 -13 323
38 531 78 774 147 539 153 954 387 1325 748 409 398 676 867 836 1465 109 409
172 1121 145 1623 -7 133 -13 251 -13 262 0 11 9 76 21 145 27 157 57 394 73
575 18 209 16 780 -5 1005 -60 662 -211 1285 -456 1880 -78 191 -182 411 -209
443 -51 60 -167 86 -245 53 -35 -15 -219 -200 -527 -531 -41 -44 -128 -139
-195 -210 -213 -229 -603 -663 -839 -933 l-90 -103 -55 6 c-425 44 -1576 58
-2145 26 -256 -15 -689 -48 -854 -66 -74 -9 -135 -14 -136 -13 -1 2 -32 57
-70 123 -270 476 -633 983 -1021 1425 -167 190 -442 469 -484 490 -51 26 -118
33 -162 16z m198 -648 c368 -401 670 -797 946 -1238 102 -164 133 -218 127
-224 -3 -3 -58 -14 -124 -26 -587 -103 -1046 -293 -1357 -562 l-58 -50 0 33
c0 18 16 213 35 433 19 221 46 543 60 716 41 503 66 683 117 840 31 98 96 220
116 220 4 0 66 -64 138 -142z m6467 -300 c259 -654 397 -1310 413 -1958 l5
-215 -44 82 c-298 543 -751 837 -1480 959 -59 10 -106 22 -105 26 12 32 1128
1248 1147 1248 4 0 33 -64 64 -142z m-2783 -1423 c369 -9 1193 -63 1517 -100
363 -41 606 -117 813 -253 401 -263 636 -747 709 -1457 44 -423 44 -1169 0
-1510 -75 -592 -245 -1017 -584 -1465 -58 -76 -307 -326 -368 -369 -164 -115
-307 -207 -397 -254 -416 -218 -913 -342 -1545 -387 -182 -13 -749 -13 -985 0
-214 12 -703 48 -740 55 -14 3 -164 12 -335 20 -501 24 -705 44 -913 91 -325
71 -548 183 -740 368 -420 406 -639 979 -719 1886 -26 296 -26 1568 0 1750 58
408 180 683 398 901 361 361 929 562 1839 654 753 75 1209 91 2050 70z"/>
<path d="M6125 3837 c-62 -30 -139 -122 -161 -192 -25 -80 -31 -420 -10 -562
32 -210 66 -302 143 -384 85 -91 204 -123 298 -80 91 41 193 184 230 321 67
248 -17 584 -202 803 -65 77 -116 108 -191 114 -46 3 -67 -1 -107 -20z"/>
<path d="M1667 3825 c-86 -24 -195 -135 -290 -294 -148 -249 -185 -563 -100
-836 44 -139 103 -216 201 -262 96 -45 201 -21 304 68 126 107 241 514 224
789 -13 210 -64 405 -122 469 -59 66 -134 89 -217 66z"/>
<path d="M3570 3630 c-126 -15 -225 -65 -279 -140 -39 -55 -65 -151 -57 -217
19 -163 115 -278 321 -384 44 -23 82 -43 84 -45 8 -7 -73 -223 -110 -295 -116
-224 -225 -248 -339 -76 -56 86 -104 117 -178 117 -95 0 -173 -52 -212 -141
-41 -95 -3 -189 129 -319 123 -121 263 -180 429 -180 175 0 327 69 446 201
l45 50 27 -53 c114 -227 310 -390 501 -419 172 -25 372 45 593 209 157 117
457 377 475 413 45 85 -14 212 -120 260 -52 24 -138 24 -190 0 -22 -10 -94
-67 -160 -126 -342 -308 -512 -370 -644 -236 -80 80 -159 258 -201 450 -29
127 -28 132 30 159 64 30 262 173 322 233 37 38 48 55 53 94 15 99 -31 183
-140 250 -169 105 -382 174 -602 194 -132 12 -128 12 -223 1z"/>
</g>
</svg>
